<svg width="563" height="88" viewBox="0 0 563 88" fill="none" xmlns="http://www.w3.org/2000/svg">
<path d="M28.081 0.602051V18.449L10.161 0.602051H0.000976562V10.7546L17.871 28.6616H0.000976562V40.9925H40.421V0.602051H28.081Z" fill="#181818"/>
<path d="M0.000976562 59.0195H17.861L0.000976562 76.9264V87.069H10.161L28.081 69.222V87.069H40.421V46.6785H0.000976562V59.0195Z" fill="#181818"/>
<path d="M47.2705 12.943H65.1305L47.2705 30.84V40.9925H57.4205L75.3405 23.1356V40.9925H87.6905V0.602051H47.2705V12.943Z" fill="#181818"/>
<path d="M59.6105 87.069V69.222L77.5305 87.069H87.6905V76.9264L69.8205 59.0195H87.6905V46.6785H47.2705V87.069H59.6105Z" fill="#181818"/>
<path d="M138.141 38.7942H163.421C163.58 39.4831 163.7 40.1804 163.781 40.8827C163.873 41.6956 163.919 42.5129 163.921 43.3309C163.943 46.511 163.433 49.6724 162.411 52.6841C161.408 55.6173 159.788 58.3021 157.661 60.5583C155.333 63.0161 152.512 64.9538 149.381 66.2442C145.883 67.6306 142.144 68.3099 138.381 68.2427C134.758 68.2683 131.165 67.5895 127.801 66.2442C124.565 64.9418 121.622 63.0089 119.141 60.5583C116.661 58.1209 114.678 55.2263 113.301 52.0346C111.839 48.6367 111.103 44.971 111.141 41.2724C111.112 37.5973 111.848 33.9563 113.301 30.5802C114.678 27.3885 116.661 24.4939 119.141 22.0564C121.622 19.6332 124.558 17.7245 127.781 16.4406C134.794 13.7115 142.586 13.7651 149.561 16.5904C152.758 17.9854 155.632 20.0268 158.001 22.5861L151.301 29.1313C149.666 27.3261 147.654 25.9011 145.408 24.9568C143.162 24.0124 140.736 23.5715 138.301 23.6653C136.008 23.6546 133.734 24.082 131.601 24.9244C129.511 25.742 127.608 26.9734 126.006 28.5447C124.405 30.116 123.138 31.9946 122.281 34.0677C121.316 36.377 120.836 38.8599 120.871 41.3623C120.835 43.8681 121.315 46.3545 122.281 48.667C123.155 50.7669 124.452 52.6648 126.091 54.2429C127.702 55.7823 129.597 56.994 131.671 57.8103C136.09 59.466 140.955 59.4908 145.391 57.8803C147.181 57.1603 148.828 56.1246 150.251 54.8225C151.266 53.8854 152.105 52.7756 152.731 51.5449C153.462 50.1461 154.006 48.6579 154.351 47.1181H138.151L138.141 38.7942Z" fill="#181818"/>
<path d="M167.231 31.8192H176.091V36.7156H176.661C177.107 35.8355 177.691 35.0326 178.391 34.3374C179.113 33.6134 179.923 32.9823 180.801 32.4587C181.707 31.9138 182.674 31.4778 183.681 31.1597C184.67 30.8397 185.702 30.6745 186.741 30.6701C187.825 30.6468 188.907 30.7814 189.951 31.0698C190.754 31.2862 191.52 31.6231 192.221 32.069L189.701 40.5728C189.092 40.2764 188.451 40.0485 187.791 39.8933C186.951 39.7103 186.092 39.6264 185.231 39.6435C184.012 39.6245 182.805 39.8843 181.701 40.4029C180.653 40.9011 179.73 41.6286 179.001 42.5314C178.235 43.4894 177.652 44.5801 177.281 45.749C176.861 47.0395 176.652 48.3891 176.661 49.7461V67.0735H167.231V31.8192Z" fill="#181818"/>
<path d="M225.341 58.5597C223.75 61.3947 221.487 63.7965 218.751 65.5546C215.707 67.4028 212.191 68.3263 208.631 68.2127C206.08 68.237 203.549 67.7617 201.181 66.8137C198.959 65.9131 196.94 64.5779 195.241 62.8866C193.549 61.1913 192.215 59.1726 191.321 56.9509C189.467 52.209 189.467 46.9435 191.321 42.2017C193.091 37.7416 196.542 34.1536 200.931 32.209C203.254 31.1821 205.771 30.6674 208.311 30.7001C210.899 30.6561 213.47 31.1318 215.871 32.099C217.986 32.9683 219.882 34.296 221.421 35.9862C222.933 37.6933 224.082 39.6887 224.801 41.8519C225.588 44.2164 225.976 46.695 225.951 49.1866V50.0559C225.905 50.3165 225.881 50.5807 225.881 50.8453C225.831 51.1054 225.807 51.3699 225.811 51.6348H199.201C199.348 52.9372 199.752 54.1975 200.391 55.3421C200.962 56.3392 201.719 57.2177 202.621 57.9302C203.488 58.6169 204.479 59.1293 205.541 59.4391C206.593 59.7507 207.684 59.9089 208.781 59.9087C210.678 59.984 212.552 59.4671 214.141 58.4298C215.532 57.4759 216.679 56.2096 217.491 54.7325L225.341 58.5597ZM216.771 44.8897C216.694 44.1659 216.487 43.4619 216.161 42.8112C215.77 41.9992 215.231 41.2672 214.571 40.6528C213.826 39.9483 212.954 39.3921 212.001 39.014C210.819 38.5553 209.559 38.3346 208.291 38.3645C206.372 38.336 204.498 38.944 202.961 40.0932C201.389 41.3065 200.252 42.9964 199.721 44.9097L216.771 44.8897Z" fill="#181818"/>
<path d="M239.591 65.3448L224.761 31.8193H235.491L244.421 53.1837H244.921L253.491 31.8193H264.001L241.901 82.6122H231.741L239.591 65.3448Z" fill="#181818"/>
<path d="M297.481 68.2228C295.333 68.2317 293.196 67.9184 291.141 67.2935C289.149 66.6771 287.276 65.7277 285.601 64.4855C283.896 63.2154 282.412 61.6724 281.211 59.9189C279.883 57.9925 278.871 55.8675 278.211 53.6235L287.361 50.0261C287.94 52.4483 289.159 54.6707 290.891 56.4614C291.759 57.3193 292.795 57.9892 293.934 58.4293C295.073 58.8694 296.291 59.0703 297.511 59.0195C298.498 59.0191 299.48 58.8847 300.431 58.6198C301.344 58.3774 302.212 57.9894 303.001 57.4707C303.725 56.9788 304.324 56.3253 304.751 55.5621C305.194 54.7471 305.418 53.8313 305.401 52.904C305.415 52.0119 305.241 51.1267 304.891 50.3059C304.497 49.4685 303.92 48.7307 303.201 48.1475C302.254 47.3771 301.217 46.726 300.111 46.2089C298.573 45.4803 296.997 44.8332 295.391 44.2703L292.221 43.1112C290.755 42.6015 289.342 41.9524 288.001 41.1726C286.591 40.3478 285.296 39.3397 284.151 38.1748C282.977 36.9903 282.013 35.615 281.301 34.1077C280.539 32.451 280.16 30.6445 280.191 28.8216C280.173 26.8756 280.579 24.949 281.381 23.1757C282.178 21.4269 283.333 19.8645 284.771 18.5891C286.309 17.2287 288.095 16.177 290.031 15.4913C292.215 14.7273 294.517 14.3519 296.831 14.3821C299.116 14.3171 301.394 14.6554 303.561 15.3814C305.308 15.9927 306.94 16.891 308.391 18.0395C309.644 19.0474 310.725 20.2523 311.591 21.6069C312.339 22.7511 312.943 23.9827 313.391 25.2742L304.821 28.8716C304.302 27.3672 303.395 26.0263 302.191 24.9844C300.731 23.7999 298.878 23.2078 297.001 23.3256C295.139 23.2573 293.303 23.7746 291.751 24.8045C291.103 25.2148 290.572 25.7835 290.206 26.4568C289.84 27.1301 289.653 27.8857 289.661 28.6517C289.662 29.4174 289.843 30.1721 290.191 30.8544C290.538 31.5368 291.042 32.1276 291.661 32.5789C293.61 33.962 295.772 35.0184 298.061 35.7066L301.301 36.7858C303.266 37.4541 305.172 38.283 307.001 39.264C308.608 40.1382 310.072 41.2537 311.341 42.5716C312.554 43.853 313.508 45.356 314.151 46.9983C314.836 48.8253 315.175 50.7634 315.151 52.7141C315.225 55.1465 314.667 57.5565 313.531 59.709C312.509 61.5819 311.098 63.2141 309.391 64.4955C307.674 65.7587 305.748 66.7093 303.701 67.3035C301.683 67.9069 299.588 68.2165 297.481 68.2228Z" fill="#181818"/>
<path d="M336.211 30.6702C338.788 30.6413 341.346 31.1166 343.741 32.0692C345.957 32.9521 347.969 34.2791 349.653 35.9685C351.337 37.6578 352.657 39.6737 353.531 41.892C355.398 46.7556 355.398 52.1374 353.531 57.001C352.657 59.2192 351.337 61.2351 349.653 62.9245C347.969 64.6138 345.957 65.9408 343.741 66.8238C338.898 68.6894 333.534 68.6894 328.691 66.8238C326.475 65.9408 324.463 64.6138 322.779 62.9245C321.095 61.2351 319.776 59.2192 318.901 57.001C317.024 52.1393 317.024 46.7536 318.901 41.892C319.776 39.6737 321.095 37.6578 322.779 35.9685C324.463 34.2791 326.475 32.9521 328.691 32.0692C331.083 31.1173 333.637 30.6421 336.211 30.6702ZM336.211 59.5191C337.411 59.5178 338.599 59.2872 339.711 58.8396C340.836 58.3825 341.856 57.7026 342.711 56.8411C343.604 55.9346 344.305 54.8572 344.771 53.6734C345.771 50.9302 345.771 47.9227 344.771 45.1796C344.305 43.9958 343.604 42.9184 342.711 42.0119C341.856 41.1503 340.836 40.4705 339.711 40.0134C338.599 39.5658 337.411 39.3352 336.211 39.3339C335.008 39.3216 333.815 39.5505 332.702 40.0071C331.589 40.4636 330.579 41.1385 329.731 41.9919C328.844 42.9015 328.147 43.9783 327.681 45.1596C326.681 47.9027 326.681 50.9103 327.681 53.6534C328.147 54.8347 328.844 55.9115 329.731 56.8211C330.572 57.6889 331.579 58.3786 332.692 58.849C333.806 59.3194 335.002 59.5609 336.211 59.5591V59.5191Z" fill="#181818"/>
<path d="M386.001 39.8734H372.651V67.0735H363.211V39.8734H356.881V31.8193H363.211V28.3618C363.183 26.4107 363.522 24.4718 364.211 22.646C364.811 21.06 365.765 19.6315 367.001 18.469C368.226 17.3302 369.668 16.4499 371.241 15.8809C372.977 15.2649 374.809 14.9604 376.651 14.9816C377.42 14.9683 378.19 15.0184 378.951 15.1315C379.517 15.2216 380.072 15.3655 380.611 15.5612L380.001 24.4047C379.628 24.2539 379.243 24.1336 378.851 24.045C378.304 23.9431 377.747 23.8963 377.191 23.9051C376.572 23.8767 375.955 23.9846 375.383 24.2212C374.811 24.4578 374.298 24.8172 373.881 25.2741C373.017 26.3213 372.581 27.6563 372.661 29.0113V31.8193H386.001V21.0272H395.431V31.8193H404.001V39.8734H395.401V53.5634C395.393 54.3268 395.477 55.0884 395.651 55.8317C395.854 56.6888 396.35 57.4486 397.052 57.9809C397.754 58.5132 398.62 58.785 399.501 58.7496C400.16 58.7677 400.818 58.6834 401.451 58.4998C401.931 58.3266 402.388 58.095 402.811 57.8103L405.481 66.0843C404.344 66.6246 403.145 67.0239 401.911 67.2734C400.525 67.5478 399.114 67.6818 397.701 67.6731C396.066 67.6965 394.442 67.4152 392.911 66.8437C391.577 66.3378 390.365 65.5583 389.351 64.5554C387.118 62.3969 386.001 59.3259 386.001 55.3421V39.8734Z" fill="#181818"/>
<path d="M407.281 31.8193H417.861L423.691 53.9032H424.201L431.201 31.8193H440.921L448.001 53.9032H448.501L454.261 31.8193H464.701L453.401 67.0736H443.201L436.151 44.8398H435.651L428.591 67.0736H418.591L407.281 31.8193Z" fill="#181818"/>
<path d="M489.001 63.3363H488.421C487.289 64.7 485.937 65.8652 484.421 66.7837C482.593 67.8098 480.516 68.308 478.421 68.2227C476.665 68.2341 474.92 67.9295 473.271 67.3233C471.73 66.7584 470.303 65.9188 469.061 64.8452C467.864 63.7867 466.906 62.4854 466.251 61.0279C465.573 59.4892 465.232 57.823 465.251 56.1415C465.225 54.4348 465.595 52.7452 466.331 51.2051C467.046 49.7437 468.069 48.4548 469.331 47.4279C470.689 46.344 472.239 45.5268 473.901 45.0196C475.758 44.4523 477.69 44.1726 479.631 44.1902C481.539 44.1503 483.445 44.3314 485.311 44.7298C486.565 45.0183 487.798 45.3923 489.001 45.849V44.7698C489.015 43.8761 488.819 42.9917 488.43 42.1868C488.041 41.3819 487.47 40.6787 486.761 40.1332C485.195 38.8766 483.229 38.2241 481.221 38.2945C479.618 38.2922 478.037 38.6609 476.6 39.3717C475.163 40.0825 473.911 41.1161 472.941 42.3916L466.101 37.715C469.841 33.0184 474.955 30.6868 481.441 30.7201C486.915 30.7201 491.088 32.0025 493.961 34.5673C496.835 37.1321 498.275 40.9326 498.281 45.9689V67.0735H489.001V63.3363ZM489.001 52.754C487.903 52.2287 486.758 51.8072 485.581 51.4949C484.32 51.173 483.023 51.0151 481.721 51.0252C479.864 50.9112 478.023 51.4328 476.501 52.5042C475.932 52.9244 475.47 53.4727 475.152 54.1046C474.834 54.7365 474.669 55.4343 474.671 56.1415C474.66 56.812 474.815 57.4749 475.122 58.0711C475.429 58.6674 475.879 59.1785 476.431 59.559C477.608 60.4269 479.039 60.8835 480.501 60.8581C482.803 60.8746 485.018 59.98 486.661 58.3699C487.404 57.6327 487.99 56.7521 488.381 55.7818C488.787 54.8235 488.997 53.7943 489.001 52.754Z" fill="#181818"/>
<path d="M503.901 31.8192H512.761V36.7156H513.331C513.774 35.8334 514.358 35.0299 515.061 34.3374C515.783 33.6134 516.593 32.9823 517.471 32.4587C518.377 31.9138 519.343 31.4778 520.351 31.1597C521.34 30.8386 522.372 30.6734 523.411 30.6701C524.495 30.6468 525.576 30.7814 526.621 31.0698C527.421 31.2861 528.183 31.6231 528.881 32.069L526.361 40.5728C525.756 40.2748 525.119 40.0469 524.461 39.8933C523.624 39.6868 522.764 39.5794 521.901 39.5735C520.682 39.5546 519.475 39.8143 518.371 40.333C517.323 40.8312 516.4 41.5586 515.671 42.4614C514.907 43.4219 514.321 44.5117 513.941 45.6791C513.529 46.9712 513.324 48.3201 513.331 49.6762V67.0735H503.901V31.8192Z" fill="#181818"/>
<path d="M562.001 58.5597C560.412 61.3967 558.149 63.7991 555.411 65.5546C552.37 67.4014 548.857 68.3249 545.301 68.2127C542.75 68.237 540.219 67.7618 537.851 66.8137C535.632 65.9155 533.616 64.5803 531.924 62.8876C530.232 61.195 528.897 59.1794 528.001 56.9609C527.048 54.5714 526.572 52.0185 526.601 49.4464C526.595 46.967 527.07 44.51 528.001 42.2117C529.763 37.7463 533.216 34.1555 537.611 32.219C539.934 31.1921 542.451 30.6774 544.991 30.7101C547.579 30.6661 550.15 31.1418 552.551 32.109C554.627 32.9783 556.487 34.2915 558.001 35.9562C559.519 37.6602 560.673 39.6563 561.391 41.8219C562.173 44.1876 562.561 46.6654 562.541 49.1566V50.026C562.494 50.2865 562.471 50.5507 562.471 50.8154C562.421 51.0754 562.397 51.34 562.401 51.6048H535.871C536.013 52.9082 536.418 54.1694 537.061 55.3121C537.632 56.3092 538.389 57.1878 539.291 57.9002C540.154 58.5867 541.142 59.0991 542.201 59.4091C543.253 59.7194 544.344 59.8776 545.441 59.8788C547.341 59.9541 549.218 59.4373 550.811 58.3998C552.199 57.4432 553.346 56.1775 554.161 54.7025L562.001 58.5597ZM553.441 44.8897C553.36 44.1655 553.15 43.4616 552.821 42.8112C552.43 42.0017 551.895 41.2702 551.241 40.6528C550.49 39.9412 549.611 39.3783 548.651 38.994C547.469 38.5361 546.208 38.3154 544.941 38.3445C543.022 38.3145 541.147 38.9226 539.611 40.0732C538.032 41.2805 536.893 42.9727 536.371 44.8897H553.441Z" fill="#181818"/>
</svg>
