<svg width="563" height="87" viewBox="0 0 563 87" fill="none" xmlns="http://www.w3.org/2000/svg">
<path d="M28.081 0.512207V18.3592L10.161 0.512207H0.000976562V10.6648L17.871 28.5717H0.000976562V40.9027H40.421V0.512207H28.081Z" fill="white"/>
<path d="M0.000976562 58.9296H17.861L0.000976562 76.8365V86.9791H10.161L28.081 69.1322V86.9791H40.421V46.5886H0.000976562V58.9296Z" fill="white"/>
<path d="M47.2705 12.8532H65.1305L47.2705 30.7501V40.9027H57.4205L75.3405 23.0457V40.9027H87.6905V0.512207H47.2705V12.8532Z" fill="white"/>
<path d="M59.6105 86.9791V69.1322L77.5305 86.9791H87.6905V76.8365L69.8205 58.9296H87.6905V46.5886H47.2705V86.9791H59.6105Z" fill="white"/>
<path d="M138.141 38.7044H163.421C163.58 39.3933 163.7 40.0905 163.781 40.7929C163.873 41.6057 163.919 42.423 163.921 43.2411C163.943 46.4211 163.433 49.5825 162.411 52.5942C161.408 55.5274 159.788 58.2122 157.661 60.4685C155.333 62.9263 152.512 64.864 149.381 66.1543C145.883 67.5407 142.144 68.22 138.381 68.1529C134.758 68.1785 131.165 67.4997 127.801 66.1543C124.565 64.8519 121.622 62.9191 119.141 60.4685C116.661 58.0311 114.678 55.1364 113.301 51.9447C111.839 48.5468 111.103 44.8811 111.141 41.1826C111.112 37.5075 111.848 33.8665 113.301 30.4904C114.678 27.2987 116.661 24.404 119.141 21.9666C121.622 19.5433 124.558 17.6347 127.781 16.3507C134.794 13.6216 142.586 13.6752 149.561 16.5006C152.758 17.8955 155.632 19.9369 158.001 22.4962L151.301 29.0414C149.666 27.2363 147.654 25.8113 145.408 24.8669C143.162 23.9225 140.736 23.4817 138.301 23.5754C136.008 23.5648 133.734 23.9922 131.601 24.8345C129.511 25.6521 127.608 26.8836 126.006 28.4549C124.405 30.0261 123.138 31.9047 122.281 33.9778C121.316 36.2872 120.836 38.7701 120.871 41.2725C120.835 43.7782 121.315 46.2646 122.281 48.5772C123.155 50.677 124.452 52.5749 126.091 54.1531C127.702 55.6925 129.597 56.9041 131.671 57.7205C136.09 59.3761 140.955 59.401 145.391 57.7904C147.181 57.0705 148.828 56.0347 150.251 54.7327C151.266 53.7956 152.105 52.6858 152.731 51.4551C153.462 50.0563 154.006 48.5681 154.351 47.0283H138.151L138.141 38.7044Z" fill="white"/>
<path d="M167.231 31.7294H176.091V36.6258H176.661C177.107 35.7457 177.691 34.9427 178.391 34.2475C179.113 33.5235 179.923 32.8925 180.801 32.3689C181.707 31.824 182.674 31.3879 183.681 31.0698C184.67 30.7498 185.702 30.5847 186.741 30.5802C187.825 30.557 188.907 30.6916 189.951 30.9799C190.754 31.1963 191.52 31.5333 192.221 31.9792L189.701 40.483C189.092 40.1865 188.451 39.9586 187.791 39.8035C186.951 39.6204 186.092 39.5366 185.231 39.5537C184.012 39.5347 182.805 39.7944 181.701 40.3131C180.653 40.8113 179.73 41.5387 179.001 42.4415C178.235 43.3995 177.652 44.4903 177.281 45.6592C176.861 46.9496 176.652 48.2993 176.661 49.6563V66.9836H167.231V31.7294Z" fill="white"/>
<path d="M225.341 58.4699C223.75 61.3049 221.487 63.7067 218.751 65.4648C215.707 67.3129 212.191 68.2365 208.631 68.1228C206.08 68.1472 203.549 67.6719 201.181 66.7238C198.959 65.8232 196.94 64.488 195.241 62.7967C193.549 61.1015 192.215 59.0827 191.321 56.861C189.467 52.1192 189.467 46.8537 191.321 42.1118C193.091 37.6517 196.542 34.0637 200.931 32.1191C203.254 31.0922 205.771 30.5776 208.311 30.6102C210.899 30.5663 213.47 31.042 215.871 32.0092C217.986 32.8785 219.882 34.2061 221.421 35.8964C222.933 37.6035 224.082 39.5988 224.801 41.7621C225.588 44.1266 225.976 46.6051 225.951 49.0967V49.9661C225.905 50.2267 225.881 50.4908 225.881 50.7555C225.831 51.0155 225.807 51.2801 225.811 51.5449H199.201C199.348 52.8474 199.752 54.1076 200.391 55.2522C200.962 56.2493 201.719 57.1279 202.621 57.8403C203.488 58.5271 204.479 59.0395 205.541 59.3492C206.593 59.6609 207.684 59.8191 208.781 59.8189C210.678 59.8941 212.552 59.3772 214.141 58.34C215.532 57.3861 216.679 56.1198 217.491 54.6427L225.341 58.4699ZM216.771 44.7998C216.694 44.0761 216.487 43.3721 216.161 42.7214C215.77 41.9093 215.231 41.1773 214.571 40.5629C213.826 39.8585 212.954 39.3023 212.001 38.9241C210.819 38.4655 209.559 38.2447 208.291 38.2746C206.372 38.2462 204.498 38.8541 202.961 40.0034C201.389 41.2167 200.252 42.9066 199.721 44.8198L216.771 44.7998Z" fill="white"/>
<path d="M239.591 65.255L224.761 31.7295H235.491L244.421 53.0939H244.921L253.491 31.7295H264.001L241.901 82.5224H231.741L239.591 65.255Z" fill="white"/>
<path d="M297.481 68.133C295.333 68.1419 293.196 67.8286 291.141 67.2037C289.149 66.5873 287.276 65.6378 285.601 64.3957C283.896 63.1256 282.412 61.5826 281.211 59.829C279.883 57.9026 278.871 55.7777 278.211 53.5336L287.361 49.9363C287.94 52.3585 289.159 54.5809 290.891 56.3716C291.759 57.2294 292.795 57.8993 293.934 58.3395C295.073 58.7796 296.291 58.9805 297.511 58.9297C298.498 58.9293 299.48 58.7948 300.431 58.53C301.344 58.2876 302.212 57.8995 303.001 57.3808C303.725 56.8889 304.324 56.2355 304.751 55.4722C305.194 54.6572 305.418 53.7414 305.401 52.8142C305.415 51.922 305.241 51.0369 304.891 50.2161C304.497 49.3786 303.92 48.6408 303.201 48.0576C302.254 47.2872 301.217 46.6361 300.111 46.1191C298.573 45.3905 296.997 44.7434 295.391 44.1805L292.221 43.0213C290.755 42.5117 289.342 41.8625 288.001 41.0827C286.591 40.2579 285.296 39.2499 284.151 38.0849C282.977 36.9004 282.013 35.5251 281.301 34.0179C280.539 32.3612 280.16 30.5546 280.191 28.7318C280.173 26.7858 280.579 24.8592 281.381 23.0859C282.178 21.3371 283.333 19.7746 284.771 18.4992C286.309 17.1388 288.095 16.0871 290.031 15.4015C292.215 14.6375 294.517 14.2621 296.831 14.2923C299.116 14.2273 301.394 14.5655 303.561 15.2916C305.308 15.9028 306.94 16.8012 308.391 17.9496C309.644 18.9576 310.725 20.1624 311.591 21.517C312.339 22.6612 312.943 23.8929 313.391 25.1843L304.821 28.7817C304.302 27.2773 303.395 25.9365 302.191 24.8946C300.731 23.7101 298.878 23.118 297.001 23.2358C295.139 23.1675 293.303 23.6848 291.751 24.7147C291.103 25.1249 290.572 25.6937 290.206 26.367C289.84 27.0403 289.653 27.7958 289.661 28.5619C289.662 29.3275 289.843 30.0822 290.191 30.7646C290.538 31.447 291.042 32.0378 291.661 32.489C293.61 33.8721 295.772 34.9285 298.061 35.6167L301.301 36.6959C303.266 37.3643 305.172 38.1932 307.001 39.1741C308.608 40.0483 310.072 41.1638 311.341 42.4817C312.554 43.7631 313.508 45.2661 314.151 46.9085C314.836 48.7354 315.175 50.6736 315.151 52.6243C315.225 55.0566 314.667 57.4666 313.531 59.6192C312.509 61.4921 311.098 63.1243 309.391 64.4057C307.674 65.6689 305.748 66.6194 303.701 67.2136C301.683 67.8171 299.588 68.1267 297.481 68.133Z" fill="white"/>
<path d="M336.211 30.5803C338.788 30.5515 341.346 31.0267 343.741 31.9793C345.957 32.8623 347.969 34.1893 349.653 35.8786C351.337 37.568 352.657 39.5839 353.531 41.8021C355.398 46.6657 355.398 52.0475 353.531 56.9111C352.657 59.1294 351.337 61.1453 349.653 62.8346C347.969 64.524 345.957 65.851 343.741 66.7339C338.898 68.5996 333.534 68.5996 328.691 66.7339C326.475 65.851 324.463 64.524 322.779 62.8346C321.095 61.1453 319.776 59.1294 318.901 56.9111C317.024 52.0495 317.024 46.6638 318.901 41.8021C319.776 39.5839 321.095 37.568 322.779 35.8786C324.463 34.1893 326.475 32.8623 328.691 31.9793C331.083 31.0275 333.637 30.5523 336.211 30.5803ZM336.211 59.4293C337.411 59.428 338.599 59.1973 339.711 58.7498C340.836 58.2926 341.856 57.6128 342.711 56.7512C343.604 55.8448 344.305 54.7673 344.771 53.5835C345.771 50.8404 345.771 47.8329 344.771 45.0897C344.305 43.906 343.604 42.8285 342.711 41.9221C341.856 41.0605 340.836 40.3807 339.711 39.9235C338.599 39.476 337.411 39.2453 336.211 39.244C335.008 39.2318 333.815 39.4607 332.702 39.9172C331.589 40.3738 330.579 41.0487 329.731 41.9021C328.844 42.8116 328.147 43.8884 327.681 45.0698C326.681 47.8129 326.681 50.8204 327.681 53.5636C328.147 54.7449 328.844 55.8217 329.731 56.7312C330.572 57.5991 331.579 58.2888 332.692 58.7592C333.806 59.2296 335.002 59.4711 336.211 59.4692V59.4293Z" fill="white"/>
<path d="M386.001 39.7836H372.651V66.9837H363.211V39.7836H356.881V31.7294H363.211V28.272C363.183 26.3209 363.522 24.382 364.211 22.5561C364.811 20.9701 365.765 19.5417 367.001 18.3792C368.226 17.2404 369.668 16.3601 371.241 15.7911C372.977 15.175 374.809 14.8706 376.651 14.8917C377.42 14.8784 378.19 14.9286 378.951 15.0416C379.517 15.1317 380.072 15.2756 380.611 15.4713L380.001 24.3149C379.628 24.1641 379.243 24.0438 378.851 23.9551C378.304 23.8533 377.747 23.8064 377.191 23.8152C376.572 23.7868 375.955 23.8947 375.383 24.1313C374.811 24.3679 374.298 24.7274 373.881 25.1842C373.017 26.2314 372.581 27.5665 372.661 28.9215V31.7294H386.001V20.9373H395.431V31.7294H404.001V39.7836H395.401V53.4736C395.393 54.237 395.477 54.9986 395.651 55.7419C395.854 56.599 396.35 57.3588 397.052 57.8911C397.754 58.4234 398.62 58.6951 399.501 58.6598C400.16 58.6778 400.818 58.5936 401.451 58.41C401.931 58.2367 402.388 58.0052 402.811 57.7205L405.481 65.9944C404.344 66.5348 403.145 66.9341 401.911 67.1835C400.525 67.458 399.114 67.5919 397.701 67.5833C396.066 67.6067 394.442 67.3254 392.911 66.7539C391.577 66.248 390.365 65.4684 389.351 64.4655C387.118 62.3071 386.001 59.236 386.001 55.2523V39.7836Z" fill="white"/>
<path d="M407.281 31.7295H417.861L423.691 53.8134H424.201L431.201 31.7295H440.921L448.001 53.8134H448.501L454.261 31.7295H464.701L453.401 66.9837H443.201L436.151 44.75H435.651L428.591 66.9837H418.591L407.281 31.7295Z" fill="white"/>
<path d="M489.001 63.2464H488.421C487.289 64.6101 485.937 65.7753 484.421 66.6939C482.593 67.72 480.516 68.2182 478.421 68.1328C476.665 68.1443 474.92 67.8396 473.271 67.2335C471.73 66.6686 470.303 65.8289 469.061 64.7553C467.864 63.6969 466.906 62.3956 466.251 60.9381C465.573 59.3994 465.232 57.7332 465.251 56.0517C465.225 54.3449 465.595 52.6553 466.331 51.1153C467.046 49.6538 468.069 48.365 469.331 47.338C470.689 46.2541 472.239 45.437 473.901 44.9298C475.758 44.3624 477.69 44.0827 479.631 44.1004C481.539 44.0605 483.445 44.2416 485.311 44.64C486.565 44.9285 487.798 45.3024 489.001 45.7592V44.68C489.015 43.7863 488.819 42.9018 488.43 42.0969C488.041 41.292 487.47 40.5889 486.761 40.0434C485.195 38.7868 483.229 38.1343 481.221 38.2047C479.618 38.2024 478.037 38.571 476.6 39.2818C475.163 39.9927 473.911 41.0263 472.941 42.3017L466.101 37.6251C469.841 32.9286 474.955 30.5969 481.441 30.6302C486.915 30.6302 491.088 31.9126 493.961 34.4774C496.835 37.0422 498.275 40.8428 498.281 45.8791V66.9837H489.001V63.2464ZM489.001 52.6641C487.903 52.1388 486.758 51.7173 485.581 51.4051C484.32 51.0831 483.023 50.9253 481.721 50.9354C479.864 50.8214 478.023 51.343 476.501 52.4143C475.932 52.8346 475.47 53.3828 475.152 54.0147C474.834 54.6466 474.669 55.3444 474.671 56.0517C474.66 56.7222 474.815 57.385 475.122 57.9813C475.429 58.5775 475.879 59.0887 476.431 59.4692C477.608 60.3371 479.039 60.7936 480.501 60.7682C482.803 60.7847 485.018 59.8902 486.661 58.28C487.404 57.5428 487.99 56.6623 488.381 55.6919C488.787 54.7337 488.997 53.7045 489.001 52.6641Z" fill="white"/>
<path d="M503.901 31.7294H512.761V36.6258H513.331C513.774 35.7436 514.358 34.9401 515.061 34.2475C515.783 33.5235 516.593 32.8925 517.471 32.3689C518.377 31.824 519.343 31.3879 520.351 31.0698C521.34 30.7487 522.372 30.5835 523.411 30.5802C524.495 30.557 525.576 30.6916 526.621 30.9799C527.421 31.1963 528.183 31.5332 528.881 31.9792L526.361 40.483C525.756 40.185 525.119 39.957 524.461 39.8035C523.624 39.5969 522.764 39.4896 521.901 39.4837C520.682 39.4647 519.475 39.7245 518.371 40.2431C517.323 40.7413 516.4 41.4688 515.671 42.3716C514.907 43.332 514.321 44.4219 513.941 45.5892C513.529 46.8814 513.324 48.2302 513.331 49.5863V66.9836H503.901V31.7294Z" fill="white"/>
<path d="M562.001 58.4699C560.412 61.3069 558.149 63.7092 555.411 65.4648C552.37 67.3116 548.857 68.2351 545.301 68.1228C542.75 68.1472 540.219 67.6719 537.851 66.7239C535.632 65.8256 533.616 64.4905 531.924 62.7978C530.232 61.1051 528.897 59.0895 528.001 56.871C527.048 54.4816 526.572 51.9287 526.601 49.3565C526.595 46.8772 527.07 44.4202 528.001 42.1218C529.763 37.6564 533.216 34.0656 537.611 32.1291C539.934 31.1022 542.451 30.5876 544.991 30.6202C547.579 30.5763 550.15 31.052 552.551 32.0192C554.627 32.8885 556.487 34.2016 558.001 35.8664C559.519 37.5703 560.673 39.5664 561.391 41.7321C562.173 44.0978 562.561 46.5755 562.541 49.0667V49.9361C562.494 50.1967 562.471 50.4609 562.471 50.7255C562.421 50.9856 562.397 51.2501 562.401 51.515H535.871C536.013 52.8184 536.418 54.0795 537.061 55.2222C537.632 56.2194 538.389 57.0979 539.291 57.8104C540.154 58.4968 541.142 59.0093 542.201 59.3193C543.253 59.6295 544.344 59.7877 545.441 59.7889C547.341 59.8643 549.218 59.3474 550.811 58.31C552.199 57.3533 553.346 56.0877 554.161 54.6127L562.001 58.4699ZM553.441 44.7999C553.36 44.0757 553.15 43.3718 552.821 42.7214C552.43 41.9118 551.895 41.1804 551.241 40.563C550.49 39.8513 549.611 39.2884 548.651 38.9042C547.469 38.4463 546.208 38.2255 544.941 38.2546C543.022 38.2247 541.147 38.8328 539.611 39.9834C538.032 41.1906 536.893 42.8829 536.371 44.7999H553.441Z" fill="white"/>
</svg>
